<svg fill="none" xmlns="http://www.w3.org/2000/svg" viewBox="0 0 133 133"><g clip-path="url(#a)"><g clip-path="url(#b)" fill="#73AEE5"><circle cx="51" cy="107" r="17"/><path fill-rule="evenodd" clip-rule="evenodd" d="M114.5 36c-1.833 30-17.2 91.6-64 98-15.333-1.5-46-16.1-46-62.5C-.833 91.833 4.4 148.4 68 212c.5.5 56-57.5 46.5-176ZM66.202 179.643l-16.828-9.477a11.686 11.686 0 0 1-5.632-7.436l-.107-.44a11.167 11.167 0 0 1 16.66-12.173l1.133.69.69-1.132a11.168 11.168 0 0 1 20.388 3.178l.107.44c.764 3.151.19 6.482-1.596 9.191l-10.609 16.138a3.172 3.172 0 0 1-4.206 1.021Z"/><path d="M71.61 7.547 66.327 11.5A3.323 3.323 0 0 0 65 14.172v1.422a1.92 1.92 0 0 0 1.922 1.922c.375 0 .75-.11 1.062-.328l6.532-4.36a1.98 1.98 0 0 1 1.062-.328h.156c.97 0 1.766.797 1.766 1.766 0 .468-.188.921-.516 1.25l-3.109 3.109a8.286 8.286 0 0 1-3.234 2L66.5 22a2.186 2.186 0 0 0-1.5 2.094c0 .578-.234 1.14-.64 1.562l-2.797 2.797c-1 1-1.547 2.344-1.547 3.75v.672c0 2.563 2.125 4.64 4.672 4.64 1.718 0 3.312-.968 4.078-2.5l.625-1.265a2.248 2.248 0 0 1 2-1.234c.703 0 1.359.328 1.78.89l2.548 3.39c.328.454.86.704 1.422.704 1.312 0 2.171-1.39 1.578-2.563l-.172-.359a2.015 2.015 0 0 1 1.172-2.812l3.312-1.11a2.89 2.89 0 0 0 1.985-2.75A2.9 2.9 0 0 1 87.922 25h4.594c1.375 0 2.5 1.125 2.5 2.5s-1.125 2.5-2.5 2.5H89.28a4.283 4.283 0 0 0-3.015 1.25l-.735.734a1.774 1.774 0 0 0-.515 1.25c0 .97.796 1.766 1.765 1.766h1.766c.937 0 1.844.375 2.5 1.031l1.016 1.016c.28.281.437.672.437 1.062 0 .391-.156.782-.438 1.063l-1.171 1.172A3.08 3.08 0 0 0 90 42.5c0 .797.313 1.563.89 2.14l2.86 2.86a8.54 8.54 0 0 0 6.031 2.5h1.141a32.606 32.606 0 0 0 1.562-10c0-17.406-13.687-31.625-30.89-32.453h.015Zm26.874 48.11a3.525 3.525 0 0 0-2.03-.641 3.549 3.549 0 0 1-2.5-1.032l-2.079-2.109A6.36 6.36 0 0 0 87.359 50c-1.515 0-3-.547-4.156-1.531l-4.14-3.563a10.048 10.048 0 0 0-6.516-2.406H69.28a10.01 10.01 0 0 0-5.547 1.672l-4.28 2.86A10.021 10.021 0 0 0 55 55.358v.5c0 2.657 1.047 5.203 2.922 7.078l2.5 2.5a7.074 7.074 0 0 0 5 2.079h3.328a3.741 3.741 0 0 1 3.75 3.75c0 .39.063.78.172 1.14 11.14-.906 20.703-7.437 25.812-16.75ZM30 40a40 40 0 1 1 80 0 40 40 0 0 1-80 0Zm29.266-24.266a2.508 2.508 0 0 0-3.532 0l-5 5a2.508 2.508 0 0 0 0 3.532 2.508 2.508 0 0 0 3.532 0l5-5a2.508 2.508 0 0 0 0-3.532Z"/></g></g><defs><clipPath id="a"><path fill="#fff" d="M0 0h133v133H0z"/></clipPath><clipPath id="b"><path fill="#fff" d="M0 0h133v282H0z"/></clipPath></defs></svg>